<?xml version="1.0" encoding="UTF-8" standalone="no"?>
<!DOCTYPE svg PUBLIC "-//W3C//DTD SVG 1.1//EN"
 "http://www.w3.org/Graphics/SVG/1.1/DTD/svg11.dtd">
<!-- Generated by graphviz version 2.43.0 (0)
 -->
<!-- Title: %3 Pages: 1 -->
<svg width="2157pt" height="59pt"
 viewBox="0.00 0.00 2156.50 59.00" xmlns="http://www.w3.org/2000/svg" xmlns:xlink="http://www.w3.org/1999/xlink">
<g id="graph0" class="graph" transform="scale(1 1) rotate(0) translate(4 55)">
<title>%3</title>
<polygon fill="white" stroke="transparent" points="-4,4 -4,-55 2152.5,-55 2152.5,4 -4,4"/>
<!-- plan3_stoneboard_1 -->
<g id="node1" class="node">
<title>plan3_stoneboard_1</title>
<polygon fill="white" stroke="transparent" points="236,-51 0,-51 0,0 236,0 236,-51"/>
<g id="a_node1_0"><a xlink:href="https://github.com/plan3/stoneboard/milestone/1" xlink:title="&lt;TABLE&gt;">
<text text-anchor="start" x="11" y="-30.7" font-family="Times,serif" font-size="16.00">Clean up database design</text>
<defs>
<linearGradient id="l_0" gradientUnits="userSpaceOnUse" x1="9" y1="-14" x2="227" y2="-14" >
<stop offset="0.669" style="stop-color:Turquoise;stop-opacity:1.;"/>
<stop offset="0.670" style="stop-color:white;stop-opacity:1.;"/>
</linearGradient>
</defs>
<polygon fill="url(#l_0)" stroke="transparent" points="9,-4.5 9,-23.5 227,-23.5 227,-4.5 9,-4.5"/>
<text text-anchor="start" x="30.5" y="-10.3" font-family="Times,serif" font-size="14.00" fill="gray">plan3/stoneboard/1 &#160;&#160;2/3</text>
<polygon fill="none" stroke="black" points="8,-4 8,-47 228,-47 228,-4 8,-4"/>
</a>
</g>
</g>
<!-- plan3_stoneboard_2 -->
<g id="node2" class="node">
<title>plan3_stoneboard_2</title>
<polygon fill="white" stroke="transparent" points="451.5,-51 254.5,-51 254.5,0 451.5,0 451.5,-51"/>
<g id="a_node2_1"><a xlink:href="https://github.com/plan3/stoneboard/milestone/2" xlink:title="&lt;TABLE&gt;">
<text text-anchor="start" x="270.5" y="-30.7" font-family="Times,serif" font-size="16.00">Analyse query plans</text>
<defs>
<linearGradient id="l_1" gradientUnits="userSpaceOnUse" x1="264" y1="-14" x2="443" y2="-14" >
<stop offset="0.669" style="stop-color:Turquoise;stop-opacity:1.;"/>
<stop offset="0.670" style="stop-color:white;stop-opacity:1.;"/>
</linearGradient>
</defs>
<polygon fill="url(#l_1)" stroke="transparent" points="264,-4.5 264,-23.5 443,-23.5 443,-4.5 264,-4.5"/>
<text text-anchor="start" x="266" y="-10.3" font-family="Times,serif" font-size="14.00" fill="gray">plan3/stoneboard/2 &#160;&#160;2/3</text>
<polygon fill="none" stroke="black" points="262.5,-4 262.5,-47 443.5,-47 443.5,-4 262.5,-4"/>
</a>
</g>
</g>
<!-- plan3_stoneboard_3 -->
<g id="node3" class="node">
<title>plan3_stoneboard_3</title>
<polygon fill="white" stroke="transparent" points="666.5,-51 469.5,-51 469.5,0 666.5,0 666.5,-51"/>
<g id="a_node3_2"><a xlink:href="https://github.com/plan3/stoneboard/milestone/3" xlink:title="&lt;TABLE&gt;">
<text text-anchor="start" x="501" y="-30.7" font-family="Times,serif" font-size="16.00">Move to OAuth2</text>
<defs>
<linearGradient id="l_2" gradientUnits="userSpaceOnUse" x1="479" y1="-14" x2="658" y2="-14" >
<stop offset="0.499" style="stop-color:Turquoise;stop-opacity:1.;"/>
<stop offset="0.500" style="stop-color:white;stop-opacity:1.;"/>
</linearGradient>
</defs>
<polygon fill="url(#l_2)" stroke="transparent" points="479,-4.5 479,-23.5 658,-23.5 658,-4.5 479,-4.5"/>
<text text-anchor="start" x="481" y="-10.3" font-family="Times,serif" font-size="14.00" fill="gray">plan3/stoneboard/3 &#160;&#160;1/2</text>
<polygon fill="none" stroke="black" points="477.5,-4 477.5,-47 658.5,-47 658.5,-4 477.5,-4"/>
</a>
</g>
</g>
<!-- plan3_stoneboard_4 -->
<g id="node4" class="node">
<title>plan3_stoneboard_4</title>
<polygon fill="white" stroke="transparent" points="923.5,-51 684.5,-51 684.5,0 923.5,0 923.5,-51"/>
<g id="a_node4_3"><a xlink:href="https://github.com/plan3/stoneboard/milestone/4" xlink:title="&lt;TABLE&gt;">
<text text-anchor="start" x="696" y="-30.7" font-family="Times,serif" font-size="16.00">Add support for user roles</text>
<defs>
<linearGradient id="l_3" gradientUnits="userSpaceOnUse" x1="694" y1="-14" x2="915" y2="-14" >
<stop offset="0.499" style="stop-color:Turquoise;stop-opacity:1.;"/>
<stop offset="0.500" style="stop-color:white;stop-opacity:1.;"/>
</linearGradient>
</defs>
<polygon fill="url(#l_3)" stroke="transparent" points="694,-4.5 694,-23.5 915,-23.5 915,-4.5 694,-4.5"/>
<text text-anchor="start" x="717" y="-10.3" font-family="Times,serif" font-size="14.00" fill="gray">plan3/stoneboard/4 &#160;&#160;1/2</text>
<polygon fill="none" stroke="black" points="692.5,-4 692.5,-47 915.5,-47 915.5,-4 692.5,-4"/>
</a>
</g>
</g>
<!-- plan3_stoneboard_5 -->
<g id="node5" class="node">
<title>plan3_stoneboard_5</title>
<polygon fill="white" stroke="transparent" points="1230.5,-51 941.5,-51 941.5,0 1230.5,0 1230.5,-51"/>
<g id="a_node5_4"><a xlink:href="https://github.com/plan3/stoneboard/milestone/5" xlink:title="&lt;TABLE&gt;">
<text text-anchor="start" x="953" y="-30.7" font-family="Times,serif" font-size="16.00">Audit log for destructive actions</text>
<defs>
<linearGradient id="l_4" gradientUnits="userSpaceOnUse" x1="951" y1="-14" x2="1222" y2="-14" >
<stop offset="0.989" style="stop-color:Turquoise;stop-opacity:1.;"/>
<stop offset="0.990" style="stop-color:white;stop-opacity:1.;"/>
</linearGradient>
</defs>
<polygon fill="url(#l_4)" stroke="transparent" points="951,-4.5 951,-23.5 1222,-23.5 1222,-4.5 951,-4.5"/>
<text text-anchor="start" x="999" y="-10.3" font-family="Times,serif" font-size="14.00" fill="gray">plan3/stoneboard/5 &#160;&#160;2/2</text>
<polygon fill="none" stroke="black" points="949.5,-4 949.5,-47 1222.5,-47 1222.5,-4 949.5,-4"/>
</a>
</g>
</g>
<!-- plan3_stoneboard_6 -->
<g id="node6" class="node">
<title>plan3_stoneboard_6</title>
<polygon fill="white" stroke="transparent" points="1479.5,-51 1248.5,-51 1248.5,0 1479.5,0 1479.5,-51"/>
<g id="a_node6_5"><a xlink:href="https://github.com/plan3/stoneboard/milestone/6" xlink:title="&lt;TABLE&gt;">
<text text-anchor="start" x="1260" y="-30.7" font-family="Times,serif" font-size="16.00">Use SLF4J for all logging</text>
<defs>
<linearGradient id="l_5" gradientUnits="userSpaceOnUse" x1="1258" y1="-14" x2="1471" y2="-14" >
<stop offset="0.989" style="stop-color:Turquoise;stop-opacity:1.;"/>
<stop offset="0.990" style="stop-color:white;stop-opacity:1.;"/>
</linearGradient>
</defs>
<polygon fill="url(#l_5)" stroke="transparent" points="1258,-4.5 1258,-23.5 1471,-23.5 1471,-4.5 1258,-4.5"/>
<text text-anchor="start" x="1277" y="-10.3" font-family="Times,serif" font-size="14.00" fill="gray">plan3/stoneboard/6 &#160;&#160;2/2</text>
<polygon fill="none" stroke="black" points="1256.5,-4 1256.5,-47 1471.5,-47 1471.5,-4 1256.5,-4"/>
</a>
</g>
</g>
<!-- plan3_stoneboard_7 -->
<g id="node7" class="node">
<title>plan3_stoneboard_7</title>
<polygon fill="white" stroke="transparent" points="1694.5,-51 1497.5,-51 1497.5,0 1694.5,0 1694.5,-51"/>
<g id="a_node7_6"><a xlink:href="https://github.com/plan3/stoneboard/milestone/7" xlink:title="&lt;TABLE&gt;">
<text text-anchor="start" x="1519.5" y="-30.7" font-family="Times,serif" font-size="16.00">Archive logs on S3</text>
<defs>
<linearGradient id="l_6" gradientUnits="userSpaceOnUse" x1="1507" y1="-14" x2="1686" y2="-14" >
<stop offset="0.499" style="stop-color:Turquoise;stop-opacity:1.;"/>
<stop offset="0.500" style="stop-color:white;stop-opacity:1.;"/>
</linearGradient>
</defs>
<polygon fill="url(#l_6)" stroke="transparent" points="1507,-4.5 1507,-23.5 1686,-23.5 1686,-4.5 1507,-4.5"/>
<text text-anchor="start" x="1509" y="-10.3" font-family="Times,serif" font-size="14.00" fill="gray">plan3/stoneboard/7 &#160;&#160;2/4</text>
<polygon fill="none" stroke="black" points="1505.5,-4 1505.5,-47 1686.5,-47 1686.5,-4 1505.5,-4"/>
</a>
</g>
</g>
<!-- plan3_stoneboard_8 -->
<g id="node8" class="node">
<title>plan3_stoneboard_8</title>
<polygon fill="white" stroke="transparent" points="1933.5,-51 1712.5,-51 1712.5,0 1933.5,0 1933.5,-51"/>
<g id="a_node8_7"><a xlink:href="https://github.com/plan3/stoneboard/milestone/8" xlink:title="&lt;TABLE&gt;">
<text text-anchor="start" x="1724" y="-30.7" font-family="Times,serif" font-size="16.00">Administrator UI screen</text>
<defs>
<linearGradient id="l_7" gradientUnits="userSpaceOnUse" x1="1722" y1="-14" x2="1925" y2="-14" >
<stop offset="0" style="stop-color:Turquoise;stop-opacity:1.;"/>
<stop offset="1" style="stop-color:white;stop-opacity:1.;"/>
</linearGradient>
</defs>
<polygon fill="url(#l_7)" stroke="transparent" points="1722,-4.5 1722,-23.5 1925,-23.5 1925,-4.5 1722,-4.5"/>
<text text-anchor="start" x="1736" y="-10.3" font-family="Times,serif" font-size="14.00" fill="gray">plan3/stoneboard/8 &#160;&#160;0/0</text>
<polygon fill="none" stroke="black" points="1720.5,-4 1720.5,-47 1925.5,-47 1925.5,-4 1720.5,-4"/>
</a>
</g>
</g>
<!-- plan3_stoneboard_9 -->
<g id="node9" class="node">
<title>plan3_stoneboard_9</title>
<polygon fill="white" stroke="transparent" points="2148.5,-51 1951.5,-51 1951.5,0 2148.5,0 2148.5,-51"/>
<g id="a_node9_8"><a xlink:href="https://github.com/plan3/stoneboard/milestone/9" xlink:title="&lt;TABLE&gt;">
<text text-anchor="start" x="1978" y="-30.7" font-family="Times,serif" font-size="16.00">Administrator UX</text>
<defs>
<linearGradient id="l_8" gradientUnits="userSpaceOnUse" x1="1961" y1="-14" x2="2140" y2="-14" >
<stop offset="0.989" style="stop-color:Turquoise;stop-opacity:1.;"/>
<stop offset="0.990" style="stop-color:white;stop-opacity:1.;"/>
</linearGradient>
</defs>
<polygon fill="url(#l_8)" stroke="transparent" points="1961,-4.5 1961,-23.5 2140,-23.5 2140,-4.5 1961,-4.5"/>
<text text-anchor="start" x="1963" y="-10.3" font-family="Times,serif" font-size="14.00" fill="gray">plan3/stoneboard/9 &#160;&#160;2/2</text>
<polygon fill="none" stroke="black" points="1959.5,-4 1959.5,-47 2140.5,-47 2140.5,-4 1959.5,-4"/>
</a>
</g>
</g>
</g>
</svg>
