<?xml version="1.0" encoding="UTF-8" standalone="no"?>
<!DOCTYPE svg PUBLIC "-//W3C//DTD SVG 1.1//EN"
 "http://www.w3.org/Graphics/SVG/1.1/DTD/svg11.dtd">
<!-- Generated by graphviz version 2.43.0 (0)
 -->
<!-- Title: %3 Pages: 1 -->
<svg width="211pt" height="233pt"
 viewBox="0.00 0.00 211.00 233.00" xmlns="http://www.w3.org/2000/svg" xmlns:xlink="http://www.w3.org/1999/xlink">
<g id="graph0" class="graph" transform="scale(1 1) rotate(0) translate(4 229)">
<title>%3</title>
<polygon fill="white" stroke="transparent" points="-4,4 -4,-229 207,-229 207,4 -4,4"/>
<!-- afirth_roadmapper_1 -->
<g id="node1" class="node">
<title>afirth_roadmapper_1</title>
<polygon fill="white" stroke="transparent" points="203,-225 0,-225 0,-174 203,-174 203,-225"/>
<g id="a_node1_0"><a xlink:href="https://github.com/afirth/roadmapper/milestone/1" xlink:title="&lt;TABLE&gt;">
<text text-anchor="start" x="86.5" y="-204.7" font-family="Times,serif" font-size="16.00">Foo</text>
<defs>
<linearGradient id="l_0" gradientUnits="userSpaceOnUse" x1="9.5" y1="-188" x2="194.5" y2="-188" >
<stop offset="0.989" style="stop-color:Turquoise;stop-opacity:1.;"/>
<stop offset="0.990" style="stop-color:white;stop-opacity:1.;"/>
</linearGradient>
</defs>
<polygon fill="url(#l_0)" stroke="transparent" points="9.5,-178.5 9.5,-197.5 194.5,-197.5 194.5,-178.5 9.5,-178.5"/>
<text text-anchor="start" x="11.5" y="-184.3" font-family="Times,serif" font-size="14.00" fill="gray">afirth/roadmapper/1 &#160;&#160;2/2</text>
<polygon fill="none" stroke="black" points="8,-178 8,-221 195,-221 195,-178 8,-178"/>
</a>
</g>
</g>
<!-- afirth_roadmapper_2 -->
<g id="node2" class="node">
<title>afirth_roadmapper_2</title>
<polygon fill="white" stroke="transparent" points="203,-138 0,-138 0,-87 203,-87 203,-138"/>
<g id="a_node2_1"><a xlink:href="https://github.com/afirth/roadmapper/milestone/2" xlink:title="&lt;TABLE&gt;">
<text text-anchor="start" x="87" y="-117.7" font-family="Times,serif" font-size="16.00">Bar</text>
<defs>
<linearGradient id="l_1" gradientUnits="userSpaceOnUse" x1="9.5" y1="-101" x2="194.5" y2="-101" >
<stop offset="0.989" style="stop-color:Turquoise;stop-opacity:1.;"/>
<stop offset="0.990" style="stop-color:white;stop-opacity:1.;"/>
</linearGradient>
</defs>
<polygon fill="url(#l_1)" stroke="transparent" points="9.5,-91.5 9.5,-110.5 194.5,-110.5 194.5,-91.5 9.5,-91.5"/>
<text text-anchor="start" x="11.5" y="-97.3" font-family="Times,serif" font-size="14.00" fill="gray">afirth/roadmapper/2 &#160;&#160;1/1</text>
<polygon fill="none" stroke="black" points="8,-91 8,-134 195,-134 195,-91 8,-91"/>
</a>
</g>
</g>
<!-- afirth_roadmapper_1&#45;&gt;afirth_roadmapper_2 -->
<g id="edge1" class="edge">
<title>afirth_roadmapper_1&#45;&gt;afirth_roadmapper_2</title>
<path fill="none" stroke="gray" d="M101.5,-173.91C101.5,-165.9 101.5,-156.84 101.5,-148.22"/>
<polygon fill="gray" stroke="gray" points="105,-148.03 101.5,-138.03 98,-148.03 105,-148.03"/>
</g>
<!-- afirth_roadmapper_3 -->
<g id="node3" class="node">
<title>afirth_roadmapper_3</title>
<polygon fill="white" stroke="transparent" points="203,-51 0,-51 0,0 203,0 203,-51"/>
<g id="a_node3_2"><a xlink:href="https://github.com/afirth/roadmapper/milestone/3" xlink:title="&lt;TABLE&gt;">
<text text-anchor="start" x="72" y="-30.7" font-family="Times,serif" font-size="16.00">FooBar</text>
<defs>
<linearGradient id="l_2" gradientUnits="userSpaceOnUse" x1="9.5" y1="-14" x2="194.5" y2="-14" >
<stop offset="0" style="stop-color:Turquoise;stop-opacity:1.;"/>
<stop offset="1" style="stop-color:white;stop-opacity:1.;"/>
</linearGradient>
</defs>
<polygon fill="url(#l_2)" stroke="transparent" points="9.5,-4.5 9.5,-23.5 194.5,-23.5 194.5,-4.5 9.5,-4.5"/>
<text text-anchor="start" x="11.5" y="-10.3" font-family="Times,serif" font-size="14.00" fill="gray">afirth/roadmapper/3 &#160;&#160;0/0</text>
<polygon fill="none" stroke="black" points="8,-4 8,-47 195,-47 195,-4 8,-4"/>
</a>
</g>
</g>
<!-- afirth_roadmapper_2&#45;&gt;afirth_roadmapper_3 -->
<g id="edge2" class="edge">
<title>afirth_roadmapper_2&#45;&gt;afirth_roadmapper_3</title>
<path fill="none" stroke="gray" d="M101.5,-86.91C101.5,-78.9 101.5,-69.84 101.5,-61.22"/>
<polygon fill="gray" stroke="gray" points="105,-61.03 101.5,-51.03 98,-61.03 105,-61.03"/>
</g>
</g>
</svg>
